<svg xmlns="http://www.w3.org/2000/svg" xmlns:xlink="http://www.w3.org/1999/xlink" version="1.1" width="53px" height="228px" viewBox="-0.5 -0.5 53 228"><defs/><g><path d="M 7 96.91 C 8.1 92.97 16.17 90 25.75 90 C 35.33 90 43.4 92.97 44.5 96.91 L 44.5 133.09 C 43.4 137.03 35.33 140 25.75 140 C 16.17 140 8.1 137.03 7 133.09 Z M 12.49 96.91 C 12.49 99.11 18.44 100.9 25.78 100.9 C 33.11 100.9 39.06 99.11 39.06 96.91 C 39.06 94.7 33.11 92.92 25.78 92.92 C 18.44 92.92 12.49 94.7 12.49 96.91 Z M 19.68 111.82 C 18.06 111.43 16.37 111.45 14.75 111.87 C 13.66 112.3 12.91 113.32 12.84 114.49 C 12.73 115.61 13.26 116.7 14.2 117.32 L 16.46 118.27 C 16.69 118.42 16.83 118.67 16.82 118.94 C 16.81 119.21 16.65 119.46 16.41 119.58 C 15.81 119.69 15.18 119.64 14.6 119.43 L 12.94 118.68 L 12.89 121.4 C 13.88 121.8 14.94 121.99 16.01 121.95 C 17.12 122 18.22 121.68 19.13 121.04 C 19.81 120.43 20.22 119.59 20.29 118.68 C 20.25 117.66 19.7 116.73 18.83 116.21 L 16.36 114.95 C 16.19 114.69 16.19 114.35 16.37 114.09 C 16.55 113.83 16.86 113.71 17.17 113.79 C 18.05 113.8 18.92 114.04 19.68 114.49 Z M 25.98 114.14 C 26.98 114.14 27.79 115.3 27.79 116.74 C 27.79 118.17 26.98 119.33 25.98 119.33 C 24.97 119.33 24.16 118.17 24.16 116.74 C 24.16 115.3 24.97 114.14 25.98 114.14 Z M 28.23 121.35 C 30.12 120.41 31.23 118.4 31.01 116.31 C 30.86 114.44 29.78 112.77 28.14 111.87 C 26.99 111.37 25.7 111.32 24.52 111.72 C 23 112.07 21.76 113.17 21.24 114.64 C 20.57 116.34 20.78 118.27 21.8 119.78 C 22.67 121.06 24.08 121.85 25.62 121.95 L 27.69 124.32 L 31.71 124.32 Z M 32.42 121.75 L 38.96 121.75 L 38.96 119.28 L 35.44 119.28 L 35.44 111.62 L 32.42 111.62 Z" fill="#000066" stroke="none" pointer-events="none"/><path d="M 2 7 C 2.25 3.85 4.67 1.33 7.76 1 L 39.72 1 L 49.4 10.93 L 49.4 44.3 C 49.5 47.71 46.99 50.63 43.64 51 L 7.76 51 C 4.58 50.65 2.13 47.99 2 44.75 Z M 5.38 44.35 C 5.32 46 6.58 47.39 8.2 47.47 L 43.39 47.47 C 44.9 47.24 45.99 45.89 45.93 44.35 L 45.93 12.74 L 38.03 12.74 L 38.03 4.58 L 8.4 4.58 C 7.6 4.56 6.82 4.88 6.25 5.46 C 5.68 6.04 5.36 6.83 5.38 7.65 Z M 10.64 37.74 L 9.94 34.97 L 12.03 34.11 L 12.18 32.5 L 10.44 31.09 L 11.83 28.72 L 13.96 29.58 L 15 28.67 L 14.66 26.4 L 17.39 25.65 L 18.28 27.76 L 19.77 28.02 L 21.46 26.05 L 23.84 27.56 L 22.9 29.83 L 23.74 30.94 L 26.12 30.69 L 26.77 33.41 L 24.63 34.27 L 24.48 35.83 L 26.32 37.29 L 24.88 39.66 L 22.8 38.8 L 21.61 39.76 L 21.75 42.08 L 19.17 42.73 L 18.23 40.62 L 16.74 40.47 L 15.35 42.28 L 12.92 40.77 L 13.76 38.75 L 12.77 37.49 Z M 14.46 34.27 C 14.46 36.47 16.21 38.25 18.38 38.25 C 20.54 38.25 22.3 36.47 22.3 34.27 C 22.3 32.07 20.54 30.28 18.38 30.28 C 16.21 30.28 14.46 32.07 14.46 34.27 Z M 25.18 29.18 L 24.53 26.4 L 26.62 25.65 L 26.87 23.93 L 25.03 22.57 L 26.52 20.15 L 28.55 20.96 L 29.65 20.25 L 29.35 17.78 L 32.03 17.08 L 32.87 19.25 L 34.46 19.4 L 36 17.58 L 38.43 19.09 L 37.49 21.16 L 38.33 22.37 L 40.81 22.12 L 41.41 24.79 L 39.32 25.75 L 39.08 27.26 L 40.96 28.77 L 39.47 31.04 L 37.44 30.23 L 36.25 31.14 L 36.45 33.51 L 33.77 34.11 L 32.92 32.05 L 31.33 31.9 L 29.94 33.71 L 27.61 32.2 L 28.41 30.18 L 27.51 28.87 Z M 29.05 25.6 C 29.05 27.82 30.83 29.63 33.02 29.63 C 35.21 29.63 36.99 27.82 36.99 25.6 C 36.99 23.37 35.21 21.56 33.02 21.56 C 30.83 21.56 29.05 23.37 29.05 25.6 Z" fill="#000066" stroke="none" pointer-events="none"/><path d="M 0.75 203.55 L 13.24 181 L 38.26 181 L 50.75 203.55 L 38.26 226 L 13.24 226 Z M 6.54 211.2 C 6.53 211.69 6.71 212.15 7.04 212.5 C 7.37 212.85 7.83 213.04 8.3 213.04 L 43.2 213.04 L 48.43 204.67 L 43.2 195.49 L 8.3 195.49 C 7.83 195.49 7.37 195.68 7.04 196.03 C 6.71 196.38 6.53 196.84 6.54 197.33 Z M 7.9 197.48 C 8 197.07 8.4 196.82 8.81 196.92 L 42.49 196.92 L 46.82 204.67 L 42.49 211.71 L 8.81 211.71 C 8.56 211.77 8.31 211.7 8.13 211.52 C 7.95 211.35 7.86 211.1 7.9 210.85 Z M 10.87 209.62 C 10.92 210.03 11.28 210.32 11.68 210.29 L 24.21 210.29 C 24.44 210.32 24.67 210.24 24.83 210.08 C 25 209.93 25.09 209.7 25.07 209.47 L 25.07 199.72 C 25.07 199.5 24.98 199.29 24.81 199.14 C 24.65 199 24.43 198.93 24.21 198.96 L 11.68 198.96 C 11.47 198.95 11.26 199.02 11.11 199.16 C 10.96 199.31 10.87 199.51 10.87 199.72 Z M 12.23 200.44 L 23.06 200.44 L 17.62 204.72 Z M 12.18 202.07 L 17.22 206.26 C 17.54 206.46 17.95 206.46 18.27 206.26 L 23.61 202.07 L 23.61 208.81 L 12.23 208.81 Z M 27.08 209.47 C 27.06 209.71 27.16 209.95 27.33 210.11 C 27.51 210.27 27.76 210.34 27.99 210.29 L 40.58 210.29 C 40.8 210.3 41.01 210.22 41.17 210.06 C 41.32 209.91 41.4 209.69 41.38 209.47 L 41.41 199.72 C 41.41 199.35 41.15 199.02 40.78 198.96 L 27.89 198.96 C 27.68 198.95 27.48 199.02 27.32 199.16 C 27.17 199.31 27.08 199.51 27.08 199.72 Z M 28.85 200.49 L 39.57 200.49 L 34.18 204.83 Z M 28.59 202.07 L 33.63 206.2 C 33.99 206.31 34.38 206.31 34.74 206.2 L 39.97 202.07 L 39.97 208.81 L 28.59 208.81 Z" fill="#000066" stroke="none" pointer-events="none"/></g></svg>