<svg xmlns="http://www.w3.org/2000/svg" xmlns:xlink="http://www.w3.org/1999/xlink" version="1.1" width="742px" height="744px" viewBox="-0.5 -0.5 742 744"><defs/><g><path d="M 198 32 L 198 15.5 Q 198 2 184.5 2 L 51.5 2 Q 38 2 38 15.5 L 38 32" fill="#000033" stroke="#000000" stroke-width="2" stroke-miterlimit="10" pointer-events="none"/><path d="M 38 32 L 38 108.5 Q 38 122 51.5 122 L 184.5 122 Q 198 122 198 108.5 L 198 32" fill="none" stroke="#000000" stroke-width="2" stroke-miterlimit="10" pointer-events="none"/><path d="M 38 32 L 198 32" fill="none" stroke="#000000" stroke-width="2" stroke-miterlimit="10" pointer-events="none"/><g fill="#FFFFFF" font-family="Helvetica" text-anchor="middle" font-size="14px"><text x="117" y="22.5">Airline</text></g><g fill="#000000" font-family="Helvetica" font-size="12px"><text x="43.5" y="49.5">+Id</text><text x="43.5" y="63.5">+Name</text><text x="43.5" y="77.5">..</text></g><path d="M 452 347 L 452 330.5 Q 452 317 438.5 317 L 275.5 317 Q 262 317 262 330.5 L 262 347" fill="#000033" stroke="#000000" stroke-width="2" stroke-miterlimit="10" pointer-events="none"/><path d="M 262 347 L 262 513.5 Q 262 527 275.5 527 L 438.5 527 Q 452 527 452 513.5 L 452 347" fill="none" stroke="#000000" stroke-width="2" stroke-miterlimit="10" pointer-events="none"/><path d="M 262 347 L 452 347" fill="none" stroke="#000000" stroke-width="2" stroke-miterlimit="10" pointer-events="none"/><g fill="#FFFFFF" font-family="Helvetica" text-anchor="middle" font-size="14px"><text x="356" y="337.5">Flight</text></g><g fill="#000000" font-family="Helvetica" font-size="12px"><text x="267.5" y="364.5">+Id</text><text x="267.5" y="378.5">+AirlineId</text><text x="267.5" y="392.5">+AircraftId</text><text x="267.5" y="406.5">+Number</text><text x="267.5" y="420.5">+DestinationAirportId</text><text x="267.5" y="434.5">+ScheduledDepartureDate</text><text x="267.5" y="448.5">+EstimatedDepartureDate</text><text x="267.5" y="462.5">+ActualDepartureDate</text><text x="267.5" y="476.5">+StatusId</text><text x="267.5" y="490.5">+GateId</text></g><path d="M 502 32 L 502 15.5 Q 502 2 488.5 2 L 355.5 2 Q 342 2 342 15.5 L 342 32" fill="#000033" stroke="#000000" stroke-width="2" stroke-miterlimit="10" pointer-events="none"/><path d="M 342 32 L 342 108.5 Q 342 122 355.5 122 L 488.5 122 Q 502 122 502 108.5 L 502 32" fill="none" stroke="#000000" stroke-width="2" stroke-miterlimit="10" pointer-events="none"/><path d="M 342 32 L 502 32" fill="none" stroke="#000000" stroke-width="2" stroke-miterlimit="10" pointer-events="none"/><g fill="#FFFFFF" font-family="Helvetica" text-anchor="middle" font-size="14px"><text x="421" y="22.5">Aircraft</text></g><g fill="#000000" font-family="Helvetica" font-size="12px"><text x="347.5" y="49.5">+AirlineId</text><text x="347.5" y="63.5">+Model</text></g><path d="M 198 55 L 218 55 Q 228 55 238 55 L 302 55 Q 312 55 322 55 L 342 55" fill="none" stroke="#000000" stroke-miterlimit="10" pointer-events="none"/><path d="M 334 59 L 334 51 M 342 51 L 334 55 L 342 59" fill="none" stroke="#000000" stroke-miterlimit="10" pointer-events="none"/><path d="M 198 77 L 218 77 Q 228 77 228 87 L 228 243 Q 228 253 228 263 L 228 419 Q 228 429 238 429 L 258 429" fill="none" stroke="#000000" stroke-miterlimit="10" pointer-events="none"/><path d="M 258 425 L 250 429 L 258 433" fill="none" stroke="#000000" stroke-miterlimit="10" pointer-events="none"/><path d="M 502 55 L 522 55 Q 532 55 532 65 L 532 427 Q 532 437 522 437 L 452 437" fill="none" stroke="#000000" stroke-miterlimit="10" pointer-events="none"/><path d="M 452 441 L 460 437 L 452 433" fill="none" stroke="#000000" stroke-miterlimit="10" pointer-events="none"/><path d="M 740 414 L 740 397.5 Q 740 384 726.5 384 L 593.5 384 Q 580 384 580 397.5 L 580 414" fill="#000033" stroke="#000000" stroke-width="2" stroke-miterlimit="10" pointer-events="none"/><path d="M 580 414 L 580 490.5 Q 580 504 593.5 504 L 726.5 504 Q 740 504 740 490.5 L 740 414" fill="none" stroke="#000000" stroke-width="2" stroke-miterlimit="10" pointer-events="none"/><path d="M 580 414 L 740 414" fill="none" stroke="#000000" stroke-width="2" stroke-miterlimit="10" pointer-events="none"/><g fill="#FFFFFF" font-family="Helvetica" text-anchor="middle" font-size="14px"><text x="659" y="404.5">Airport</text></g><g fill="#000000" font-family="Helvetica" font-size="12px"><text x="585.5" y="431.5">+Id</text><text x="585.5" y="445.5">+CountryId</text><text x="585.5" y="459.5">+Locaton</text><text x="585.5" y="473.5">+Name</text><text x="585.5" y="487.5">...</text></g><path d="M 452 482 L 472 482 Q 482 482 492 482 L 540 482 Q 550 482 560 482 L 580 482" fill="none" stroke="#000000" stroke-miterlimit="10" pointer-events="none"/><path d="M 456 478 L 456 486 M 460 478 L 460 486" fill="none" stroke="#000000" stroke-miterlimit="10" pointer-events="none"/><path d="M 576 486 L 576 478 M 572 486 L 572 478" fill="none" stroke="#000000" stroke-miterlimit="10" pointer-events="none"/><path d="M 162 437 L 162 420.5 Q 162 407 148.5 407 L 15.5 407 Q 2 407 2 420.5 L 2 437" fill="#000033" stroke="#000000" stroke-width="2" stroke-miterlimit="10" pointer-events="none"/><path d="M 2 437 L 2 513.5 Q 2 527 15.5 527 L 148.5 527 Q 162 527 162 513.5 L 162 437" fill="none" stroke="#000000" stroke-width="2" stroke-miterlimit="10" pointer-events="none"/><path d="M 2 437 L 162 437" fill="none" stroke="#000000" stroke-width="2" stroke-miterlimit="10" pointer-events="none"/><g fill="#FFFFFF" font-family="Helvetica" text-anchor="middle" font-size="14px"><text x="81" y="427.5">Status</text></g><g fill="#000000" font-family="Helvetica" font-size="12px"><text x="7.5" y="454.5">+Id</text><text x="7.5" y="468.5">+Name</text><text x="7.5" y="482.5">...</text></g><path d="M 162 482 L 182 482 Q 192 482 202 482 L 222 482 Q 232 482 242 482 L 262 482" fill="none" stroke="#000000" stroke-miterlimit="10" pointer-events="none"/><path d="M 166 478 L 166 486 M 170 478 L 170 486" fill="none" stroke="#000000" stroke-miterlimit="10" pointer-events="none"/><path d="M 258 486 L 258 478 M 254 486 L 254 478" fill="none" stroke="#000000" stroke-miterlimit="10" pointer-events="none"/><path d="M 740 652 L 740 635.5 Q 740 622 726.5 622 L 593.5 622 Q 580 622 580 635.5 L 580 652" fill="#000033" stroke="#000000" stroke-width="2" stroke-miterlimit="10" pointer-events="none"/><path d="M 580 652 L 580 728.5 Q 580 742 593.5 742 L 726.5 742 Q 740 742 740 728.5 L 740 652" fill="none" stroke="#000000" stroke-width="2" stroke-miterlimit="10" pointer-events="none"/><path d="M 580 652 L 740 652" fill="none" stroke="#000000" stroke-width="2" stroke-miterlimit="10" pointer-events="none"/><g fill="#FFFFFF" font-family="Helvetica" text-anchor="middle" font-size="14px"><text x="659" y="642.5">Gate</text></g><g fill="#000000" font-family="Helvetica" font-size="12px"><text x="585.5" y="669.5">+Id</text><text x="585.5" y="683.5">+Name</text><text x="585.5" y="697.5">+DestinationId</text></g><path d="M 580 682 L 367 682 Q 357 682 357 672 L 357 527" fill="none" stroke="#000000" stroke-miterlimit="10" pointer-events="none"/><path d="M 576 686 L 576 678 M 572 686 L 572 678" fill="none" stroke="#000000" stroke-miterlimit="10" pointer-events="none"/><path d="M 361 531 L 353 531 M 361 535 L 353 535" fill="none" stroke="#000000" stroke-miterlimit="10" pointer-events="none"/><path d="M 660 622 L 660 504" fill="none" stroke="#000000" stroke-miterlimit="10" pointer-events="none"/><path d="M 656 504 L 660 512 L 664 504" fill="none" stroke="#000000" stroke-miterlimit="10" pointer-events="none"/><path d="M 740 187 L 740 170.5 Q 740 157 726.5 157 L 593.5 157 Q 580 157 580 170.5 L 580 187" fill="#000033" stroke="#000000" stroke-width="2" stroke-miterlimit="10" pointer-events="none"/><path d="M 580 187 L 580 263.5 Q 580 277 593.5 277 L 726.5 277 Q 740 277 740 263.5 L 740 187" fill="none" stroke="#000000" stroke-width="2" stroke-miterlimit="10" pointer-events="none"/><path d="M 580 187 L 740 187" fill="none" stroke="#000000" stroke-width="2" stroke-miterlimit="10" pointer-events="none"/><g fill="#FFFFFF" font-family="Helvetica" text-anchor="middle" font-size="14px"><text x="659" y="177.5">Country</text></g><g fill="#000000" font-family="Helvetica" font-size="12px"><text x="585.5" y="204.5">+Id</text><text x="585.5" y="218.5">+Name</text><text x="585.5" y="232.5">+IsoCode</text></g><path d="M 660 277 L 660 384" fill="none" stroke="#000000" stroke-miterlimit="10" pointer-events="none"/><path d="M 664 384 L 660 376 L 656 384" fill="none" stroke="#000000" stroke-miterlimit="10" pointer-events="none"/></g></svg>